<!-- Generated by IcoMoon.io -->
<svg version="1.1" xmlns="http://www.w3.org/2000/svg" width="768" height="768" viewBox="0 0 768 768">
<title></title>
<g id="icomoon-ignore">
</g>
<path fill="#000" d="M288 415.5q48 0 105 13.5t104.25 45 47.25 70.5v96h-513v-96q0-39 47.25-70.5t104.25-45 105-13.5zM480 384q-19.5 0-42-7.5 42-49.5 42-120 0-28.5-12-64.5t-30-57q22.5-7.5 42-7.5 52.5 0 90 38.25t37.5 90.75-37.5 90-90 37.5zM160.5 256.5q0-52.5 37.5-90.75t90-38.25 90 38.25 37.5 90.75-37.5 90-90 37.5-90-37.5-37.5-90zM534 420q79.5 12 141 44.25t61.5 80.25v96h-129v-96q0-73.5-73.5-124.5z"></path>
</svg>
